<?xml version="1.0" standalone="no"?>
<!DOCTYPE svg PUBLIC "-//W3C//DTD SVG 20010904//EN"
 "http://www.w3.org/TR/2001/REC-SVG-20010904/DTD/svg10.dtd">
<svg version="1.0" xmlns="http://www.w3.org/2000/svg"
 width="96.000000pt" height="96.000000pt" viewBox="0 0 96.000000 96.000000"
 preserveAspectRatio="xMidYMid meet">
<metadata>
Created by potrace 1.14, written by Peter Selinger 2001-2017
</metadata>
<g transform="translate(0.000000,96.000000) scale(0.100000,-0.100000)"
fill="#000000" stroke="none">
<path d="M375 937 c-160 -42 -283 -151 -334 -297 -27 -77 -36 -140 -19 -141 7
0 219 -2 470 -2 l457 -2 -3 30 c-2 17 -4 36 -5 43 -1 9 -27 12 -96 12 -75 0
-95 3 -95 14 0 17 24 28 45 20 8 -4 15 -1 15 5 0 6 0 14 0 19 0 4 -17 8 -38 8
-20 1 -49 2 -64 3 -18 1 -28 7 -28 16 0 11 12 15 50 15 43 0 50 3 50 20 0 13
-5 18 -15 14 -10 -4 -15 0 -15 15 0 17 -6 21 -35 21 -39 0 -50 24 -15 33 32 8
14 37 -21 32 -23 -3 -29 0 -29 16 0 10 7 19 15 19 10 0 15 10 15 28 0 26 -5
31 -52 46 -71 23 -190 29 -253 13z m11 -112 c37 -24 57 -63 57 -110 0 -132
-172 -184 -241 -72 -48 77 -12 177 73 200 30 8 84 0 111 -18z"/>
<path d="M14 458 c-4 -7 -1 -33 12 -93 31 -142 152 -274 299 -326 96 -34 264
-38 252 -6 -3 7 -10 11 -16 9 -6 -1 -11 7 -11 19 0 17 6 20 32 19 56 -3 68 -1
68 15 0 8 6 15 14 15 7 0 16 8 19 19 4 15 13 18 51 17 37 -1 46 2 46 15 0 9 9
19 20 22 32 8 23 27 -14 27 -25 0 -35 5 -39 20 -4 17 -12 19 -51 16 -39 -3
-46 0 -46 15 0 13 9 19 33 21 19 2 31 8 29 16 -2 13 6 14 86 13 45 0 52 2 52
19 0 16 -6 20 -32 18 -24 -2 -33 1 -36 15 -3 15 6 17 77 17 45 0 81 3 82 8 0
4 2 22 5 40 2 17 0 32 -4 33 -44 5 -925 2 -928 -3z"/>
</g>
</svg>
